<svg xmlns="http://www.w3.org/2000/svg" width="4000" height="4000" viewBox="0 0 4000 4000" version="1.1">
	<path d="M 595 1305.515 C 594.175 1305.709, 591.803 1306.144, 589.729 1306.483 C 581.469 1307.832, 574.750 1317.272, 574.750 1327.528 C 574.750 1341.925, 583.184 1351.154, 608.500 1364.458 C 614.550 1367.637, 623.192 1372.452, 627.705 1375.159 C 632.217 1377.865, 640.767 1382.391, 646.705 1385.216 C 652.642 1388.041, 662.225 1392.929, 668 1396.078 C 682.938 1404.225, 712.868 1417.600, 747.500 1431.605 C 753.550 1434.052, 761.875 1437.441, 766 1439.137 C 770.125 1440.833, 778.450 1444.216, 784.500 1446.654 C 790.550 1449.092, 803.600 1454.409, 813.500 1458.469 C 832.449 1466.241, 851.245 1472.972, 861.201 1475.552 C 864.471 1476.399, 875.551 1480.832, 885.823 1485.403 C 896.095 1489.974, 906.298 1494.299, 908.495 1495.015 C 910.692 1495.731, 916.317 1498.085, 920.995 1500.247 C 925.673 1502.409, 938.500 1507.788, 949.500 1512.200 C 960.500 1516.611, 976.250 1523.163, 984.500 1526.759 C 1005.456 1535.893, 1068.204 1566.306, 1088 1576.925 C 1097.075 1581.793, 1106.975 1587.015, 1110 1588.530 C 1115.421 1591.246, 1144.852 1608.228, 1158.500 1616.515 C 1162.350 1618.853, 1175.850 1626.374, 1188.500 1633.228 C 1230.758 1656.123, 1240.608 1660.893, 1269 1672.211 C 1281.375 1677.144, 1296.900 1683.564, 1303.500 1686.478 C 1327.332 1696.999, 1332.613 1699.196, 1339.500 1701.450 C 1343.350 1702.710, 1351.900 1706.082, 1358.500 1708.943 C 1371.596 1714.621, 1381.359 1718.327, 1411 1728.873 C 1421.725 1732.689, 1433.425 1737.044, 1437 1738.550 C 1440.575 1740.056, 1449.800 1742.829, 1457.500 1744.712 C 1472.980 1748.497, 1490.514 1753.562, 1514 1761.035 C 1535.984 1768.029, 1559.330 1775, 1560.773 1775 C 1562.664 1775, 1562.306 1775.776, 1558.083 1780.821 C 1549.541 1791.024, 1533.594 1819.999, 1527.582 1836.236 C 1523.995 1845.925, 1518.982 1865.981, 1515.143 1886 C 1510.456 1910.445, 1507.552 1979.203, 1509.991 2008 C 1514.739 2064.056, 1522.225 2090.033, 1541.835 2118.500 C 1556.652 2140.009, 1568.661 2148.688, 1595.831 2157.527 C 1614.134 2163.481, 1622.963 2163.976, 1648.545 2160.479 C 1654.070 2159.724, 1659.850 2158.627, 1661.391 2158.041 C 1662.932 2157.456, 1668.232 2155.841, 1673.169 2154.452 C 1678.106 2153.064, 1685.067 2150.548, 1688.637 2148.862 C 1692.207 2147.175, 1695.269 2145.953, 1695.441 2146.147 C 1695.613 2146.341, 1694.686 2152.800, 1693.382 2160.500 C 1688.828 2187.374, 1689.427 2214.112, 1694.858 2226.422 C 1695.847 2228.665, 1699.669 2240.175, 1703.351 2252 C 1711.699 2278.811, 1713.560 2284.299, 1719.791 2300.500 C 1726.089 2316.871, 1729.491 2323.668, 1743.817 2348.500 C 1761.237 2378.695, 1771.958 2394.434, 1790.576 2417.143 C 1809.120 2439.762, 1817.447 2450.131, 1829.344 2465.420 C 1837.598 2476.027, 1875.228 2514.625, 1885.555 2523.077 C 1889.332 2526.169, 1892.082 2529.337, 1892.864 2531.500 C 1893.685 2533.772, 1896.599 2537.008, 1901.309 2540.882 C 1905.264 2544.134, 1910.075 2548.470, 1912 2550.518 C 1915.696 2554.448, 1936.646 2570.739, 1949.915 2580 C 1958.013 2585.652, 1976.392 2600.534, 2018.452 2635.500 C 2057.536 2667.991, 2059.733 2669.697, 2081.664 2684.593 C 2088.198 2689.031, 2096.204 2692.101, 2107.298 2694.422 C 2115.318 2696.100, 2123.457 2695.261, 2135 2691.565 C 2153.862 2685.525, 2170.037 2681.674, 2192 2677.992 C 2198.875 2676.840, 2208.100 2674.809, 2212.500 2673.478 C 2225.364 2669.589, 2232.549 2668.170, 2257.726 2664.541 C 2291.574 2659.663, 2305.409 2658.623, 2327 2659.334 C 2347.412 2660.006, 2359.632 2661.394, 2386.385 2666.076 C 2417.993 2671.609, 2468.544 2685.459, 2493 2695.287 C 2514.573 2703.957, 2548.472 2722.093, 2577.105 2740.285 C 2584.216 2744.803, 2594.575 2751.276, 2600.124 2754.668 C 2605.672 2758.060, 2612.074 2762.335, 2614.348 2764.168 C 2624.879 2772.652, 2637.884 2781.168, 2643.898 2783.517 C 2647.529 2784.936, 2652.975 2787.881, 2656 2790.062 C 2676.823 2805.074, 2709.288 2825.126, 2727.747 2834.377 C 2746.193 2843.622, 2771.352 2853.226, 2790 2858.141 C 2814.552 2864.613, 2818.489 2865.125, 2848 2865.680 C 2874.399 2866.177, 2876.161 2866.090, 2892 2863.510 C 2901.075 2862.032, 2912.230 2859.963, 2916.789 2858.911 C 2921.348 2857.860, 2926.231 2857, 2927.641 2857 C 2929.051 2857, 2934.321 2855.618, 2939.352 2853.930 C 2944.384 2852.241, 2954.125 2849.328, 2961 2847.457 C 2967.875 2845.585, 2978.225 2842.199, 2984 2839.933 C 2989.775 2837.667, 2999.900 2833.837, 3006.500 2831.421 C 3019.120 2826.802, 3038.059 2817.968, 3046.500 2812.764 C 3049.250 2811.068, 3059.292 2805.709, 3068.815 2800.853 C 3085.481 2792.357, 3090.221 2789.351, 3106.875 2776.716 C 3127.710 2760.910, 3137.152 2753.865, 3144 2749.014 C 3148.125 2746.092, 3154.425 2741.155, 3158 2738.043 C 3161.575 2734.932, 3168.775 2729.164, 3174 2725.225 C 3197.263 2707.691, 3212.948 2695.516, 3218.500 2690.684 C 3221.800 2687.812, 3226.975 2683.447, 3230 2680.985 C 3233.025 2678.523, 3240.812 2671.781, 3247.305 2666.004 C 3253.797 2660.227, 3261.222 2653.895, 3263.805 2651.934 C 3270.811 2646.611, 3284.759 2636.727, 3292.056 2631.912 C 3295.600 2629.573, 3301.650 2625.101, 3305.500 2621.974 C 3309.350 2618.847, 3315.425 2614.721, 3319 2612.805 C 3325.614 2609.259, 3333.385 2604.844, 3349.500 2595.477 C 3357.687 2590.718, 3374.312 2581.393, 3394 2570.515 C 3409.550 2561.923, 3456.554 2529.442, 3473 2515.923 C 3475.475 2513.889, 3478.850 2511.540, 3480.500 2510.703 C 3486.365 2507.728, 3496.055 2497.720, 3506.538 2483.810 C 3522.127 2463.125, 3533.195 2439.493, 3540.559 2411.168 C 3542.384 2404.149, 3543.232 2397.209, 3543.977 2383.168 C 3544.523 2372.901, 3545.205 2362.250, 3545.493 2359.500 C 3545.983 2354.814, 3545.699 2349.141, 3543.026 2310.144 C 3541.472 2287.487, 3537.535 2269.323, 3529.012 2245.500 C 3525.077 2234.500, 3519.212 2217.481, 3515.978 2207.680 C 3512.131 2196.019, 3507.202 2183.922, 3501.717 2172.680 C 3483.520 2135.383, 3472.133 2097.512, 3461.521 2039 C 3460.074 2031.025, 3458.036 2021.125, 3456.991 2017 C 3455.946 2012.875, 3454.583 2006.125, 3453.964 2002 C 3453.344 1997.875, 3451.749 1990.143, 3450.418 1984.819 C 3449.088 1979.494, 3448 1972.529, 3448 1969.342 C 3448 1966.154, 3447.332 1960.160, 3446.515 1956.023 C 3437.831 1912.048, 3432.637 1894.149, 3422.565 1873.500 C 3418.542 1865.250, 3413.155 1854.024, 3410.595 1848.553 C 3406.638 1840.096, 3386.477 1808.195, 3363.500 1774.032 C 3357.293 1764.803, 3342.715 1747.599, 3332.967 1738 C 3317.284 1722.557, 3292.390 1699.255, 3287.599 1695.535 C 3284.614 1693.217, 3277.971 1687.720, 3272.836 1683.320 C 3267.701 1678.920, 3261.686 1674.011, 3259.468 1672.410 C 3257.251 1670.810, 3251.626 1666.310, 3246.968 1662.412 C 3227.961 1646.502, 3205.948 1631, 3183 1617.365 C 3178.325 1614.587, 3168.650 1608.799, 3161.500 1604.503 C 3154.350 1600.206, 3142.650 1593.203, 3135.500 1588.940 C 3128.350 1584.677, 3117.124 1577.884, 3110.553 1573.845 C 3094.260 1563.828, 3087.870 1560.356, 3078.510 1556.435 C 3073.812 1554.467, 3069.486 1551.880, 3068.010 1550.158 C 3061.803 1542.914, 3024.247 1521.184, 2982.700 1500.798 C 2975.110 1497.074, 2967.010 1492.735, 2964.700 1491.156 C 2955.755 1485.042, 2934.918 1474.930, 2922.500 1470.675 C 2915.350 1468.226, 2903.875 1463.978, 2897 1461.236 C 2877.955 1453.641, 2857.617 1448.331, 2831 1444.005 C 2824.675 1442.977, 2816.350 1441.432, 2812.500 1440.570 C 2808.650 1439.709, 2800.100 1438.556, 2793.500 1438.009 C 2786.900 1437.461, 2780.375 1436.784, 2779 1436.505 C 2777.625 1436.225, 2770.875 1435.333, 2764 1434.523 C 2715.001 1428.747, 2694.108 1425.368, 2678 1420.613 C 2671.675 1418.745, 2657.500 1414.863, 2646.500 1411.986 C 2610.388 1402.539, 2605.042 1401.072, 2595.217 1397.910 C 2580.508 1393.176, 2567.203 1388.473, 2560.257 1385.552 C 2556.824 1384.108, 2550.074 1382.078, 2545.257 1381.041 C 2540.441 1380.004, 2532.675 1377.728, 2528 1375.982 C 2507.337 1368.268, 2496.477 1364.932, 2485.869 1363.039 C 2479.616 1361.923, 2469.775 1359.884, 2464 1358.507 C 2415.541 1346.953, 2415.279 1346.911, 2387.328 1346.277 C 2369.340 1345.869, 2361.399 1346.111, 2351.828 1347.361 C 2345.048 1348.246, 2335.450 1349.459, 2330.500 1350.056 C 2325.550 1350.652, 2313.850 1352.859, 2304.500 1354.960 C 2295.150 1357.061, 2282.415 1359.747, 2276.200 1360.930 C 2253.498 1365.249, 2213.762 1379.295, 2196 1389.279 C 2172.149 1402.686, 2137.796 1429.937, 2102 1463.847 C 2091.275 1474.007, 2078.900 1485.481, 2074.500 1489.346 C 2070.100 1493.211, 2057.950 1504.552, 2047.500 1514.550 C 2028.540 1532.688, 2021.267 1539.199, 1992 1564.225 C 1983.475 1571.515, 1972.396 1581.647, 1967.380 1586.740 C 1962.364 1591.833, 1957.737 1596, 1957.097 1596 C 1955.766 1596, 1943.378 1589.915, 1924.512 1579.996 C 1870.020 1551.344, 1836.831 1544.082, 1801.265 1553.029 C 1783.186 1557.577, 1755.734 1569.259, 1735.421 1581.048 C 1721.198 1589.303, 1691.401 1608.520, 1687.270 1612.102 C 1685.430 1613.698, 1680.912 1615.821, 1676.770 1617.036 C 1666.905 1619.930, 1657.543 1625.148, 1651.340 1631.210 L 1646.181 1636.253 1640.340 1635.565 C 1627.216 1634.018, 1600.706 1629.439, 1570.500 1623.500 C 1552.900 1620.040, 1535.800 1616.908, 1532.500 1616.541 C 1524.783 1615.682, 1512.990 1612.931, 1501 1609.192 C 1495.775 1607.562, 1484.300 1604.562, 1475.500 1602.525 C 1466.700 1600.488, 1455.675 1597.776, 1451 1596.499 C 1446.325 1595.223, 1439.800 1593.649, 1436.500 1593.003 C 1433.200 1592.357, 1427.350 1590.961, 1423.500 1589.902 C 1401.785 1583.927, 1360.099 1574.731, 1344.500 1572.475 C 1323.080 1569.376, 1317.942 1568.032, 1290.500 1558.348 C 1278.950 1554.273, 1263.200 1549.353, 1255.500 1547.415 C 1247.800 1545.478, 1235.875 1542.345, 1229 1540.455 C 1222.125 1538.565, 1209.525 1535.475, 1201 1533.588 C 1192.475 1531.702, 1178.300 1527.906, 1169.500 1525.152 C 1160.700 1522.399, 1149.450 1519.040, 1144.500 1517.687 C 1116.365 1510.002, 1047.117 1487.149, 1031 1480.231 C 1024.675 1477.516, 1016.171 1474.295, 1012.102 1473.074 C 1005.176 1470.994, 992.117 1465.889, 968.500 1456.028 C 963 1453.731, 953.100 1449.897, 946.500 1447.507 C 931.306 1442.004, 910.107 1433.925, 900.734 1430.066 C 896.755 1428.427, 889.225 1425.529, 884 1423.624 C 869.514 1418.344, 856.480 1412.839, 843.903 1406.688 C 837.632 1403.621, 828.017 1399.269, 822.537 1397.016 C 817.057 1394.763, 810.082 1391.521, 807.037 1389.813 C 794.292 1382.661, 766.381 1369.310, 751 1363.007 C 741.925 1359.289, 729.775 1354.113, 724 1351.506 C 718.225 1348.899, 705.400 1343.170, 695.500 1338.776 C 685.600 1334.382, 673.225 1328.857, 668 1326.499 C 662.775 1324.142, 654.900 1321.096, 650.500 1319.731 C 646.100 1318.366, 639.088 1315.877, 634.918 1314.201 C 621.055 1308.630, 600.653 1304.190, 595 1305.515" stroke="none" fill="black" fill-rule="evenodd"/>
</svg>