<?xml version="1.0" encoding="UTF-8" standalone="no"?>
<svg
   xmlns="http://www.w3.org/2000/svg"
   width="500"
   height="500"
   viewBox="0 0 132.29166 132.29167"
   version="1.1"
   id="svg838">
  <g id="layer1" transform="translate(0,-164.70831)">
    <path
       fill="currentColor"
       d="M 66.196263,164.70831 C 35.830237,164.70831 0,188.83751 0,230.85414 c 0,27.13495 20.141433,66.14583 66.196263,66.14583 37.705807,0 65.134547,-29.72835 66.095397,-63.49999 -0.16305,-3.81553 -0.87525,-7.5333 -3.77163,-7.6383 -6.45523,-0.20954 -6.43577,8.649 -14.82537,-7.07243 -0.001,-0.004 -0.002,-0.008 -0.004,-0.0119 -13.63491,-30.88097 -42.302523,-19.9957 -54.526192,-5.63998 -5.775148,8.44761 -10.104344,13.20381 -18.483756,7.50187 -8.379412,-5.70193 -13.383454,2.09211 -15.842627,7.57732 -3.603822,9.36775 -4.232349,18.3728 -2.722326,26.60509 -5.530133,-6.92227 -8.930901,-15.05331 -8.876506,-23.96753 0,-15.875 13.239252,-58.20833 52.95701,-58.20833 23.830652,0 41.187977,8.84194 60.900557,31.75 -6.00624,-12.72961 -25.09212,-39.6875 -60.900557,-39.6875 z"
       id="path1415" />
  </g>
</svg>